<svg width="15" height="12" viewBox="0 0 15 12" fill="none" xmlns="http://www.w3.org/2000/svg">
<path d="M0.5 1C0.5 0.46875 0.9375 0 1.5 0H13.5C14.0312 0 14.5 0.46875 14.5 1C14.5 1.5625 14.0312 2 13.5 2H1.5C0.9375 2 0.5 1.5625 0.5 1ZM0.5 6C0.5 5.46875 0.9375 5 1.5 5H13.5C14.0312 5 14.5 5.46875 14.5 6C14.5 6.5625 14.0312 7 13.5 7H1.5C0.9375 7 0.5 6.5625 0.5 6ZM13.5 12H1.5C0.9375 12 0.5 11.5625 0.5 11C0.5 10.4688 0.9375 10 1.5 10H13.5C14.0312 10 14.5 10.4688 14.5 11C14.5 11.5625 14.0312 12 13.5 12Z" fill="#FBC846"/>
</svg>
