<svg width="14" height="10" viewBox="0 0 14 10" fill="none" xmlns="http://www.w3.org/2000/svg">
<path d="M12.8672 1.92969C12.7266 1.36719 12.2812 0.921875 11.7422 0.78125C10.7344 0.5 6.75 0.5 6.75 0.5C6.75 0.5 2.74219 0.5 1.73438 0.78125C1.19531 0.921875 0.75 1.36719 0.609375 1.92969C0.328125 2.91406 0.328125 5.02344 0.328125 5.02344C0.328125 5.02344 0.328125 7.10938 0.609375 8.11719C0.75 8.67969 1.19531 9.10156 1.73438 9.24219C2.74219 9.5 6.75 9.5 6.75 9.5C6.75 9.5 10.7344 9.5 11.7422 9.24219C12.2812 9.10156 12.7266 8.67969 12.8672 8.11719C13.1484 7.10938 13.1484 5.02344 13.1484 5.02344C13.1484 5.02344 13.1484 2.91406 12.8672 1.92969ZM5.4375 6.92188V3.125L8.76562 5.02344L5.4375 6.92188Z" fill="white"/>
</svg>
